<svg xmlns="http://www.w3.org/2000/svg" width="147" height="46" viewBox="0 0 147 46">
    <g fill="none" fill-rule="evenodd">
        <path fill="#3F4F75" d="M41.909 46H3.66C1.64 46 0 44.307 0 42.22V3.78C0 1.692 1.64 0 3.661 0H41.91c2.022 0 3.661 1.692 3.661 3.78v38.44c0 2.087-1.64 3.78-3.661 3.78"/>
        <path fill="#80CFBE" d="M11.383 17.956a1.263 1.263 0 0 1 .153.26 1.148 1.148 0 0 0-.433-.243c-.033-.072-.095-.133-.169-.147l-.022-.004a1.087 1.087 0 0 0-.065-.081c.191.052.377.124.536.215m-1.368 1.867c.117-.007.233-.03.344-.071.021.025.044.051.068.075a1.051 1.051 0 0 1-.436.027l.024-.03m.448-1.395a.62.62 0 0 0 .143.047.838.838 0 0 1 .007.107c-.081-.107-.228-.114-.337-.052l-.02-.08.164-.05c.013.01.027.02.043.028m-.717.143a1.102 1.102 0 0 0 .063.247c-.05-.055-.073-.137-.063-.247m1.412.65a35.186 35.186 0 0 0-.068-.133.803.803 0 0 0 .055-.122c.03.088.032.173.013.255m.718-1.553a3.586 3.586 0 0 0-.112-.074 2.06 2.06 0 0 0-.44-.431c-.718-.517-1.816-.567-2.338.252-.026.04-.05.082-.072.126a1.997 1.997 0 0 0-.652 1.15.251.251 0 0 0-.176.242c-.015.52.252.927.636 1.199.4.36.993.505 1.573.52.858.023 1.45-.447 1.716-1.07l.01-.013c.457-.6.51-1.433-.145-1.901M11.383 10.386a1.263 1.263 0 0 1 .153.26 1.142 1.142 0 0 0-.433-.243c-.033-.073-.095-.133-.169-.147l-.022-.005a1.08 1.08 0 0 0-.065-.08c.191.051.377.123.536.215m-1.368 1.867c.117-.007.233-.03.344-.072.021.026.044.051.068.075a1.02 1.02 0 0 1-.436.028l.024-.031m.448-1.394a.643.643 0 0 0 .143.046.833.833 0 0 1 .007.108c-.081-.107-.228-.115-.337-.052l-.02-.08.164-.05c.013.01.027.02.043.028M9.746 11c.005.033.01.066.019.099.012.05.027.099.044.149-.05-.055-.073-.137-.063-.248m1.412.65l-.068-.132c.022-.04.04-.08.055-.122.03.088.032.173.013.254m.718-1.552a2.91 2.91 0 0 0-.112-.075 2.048 2.048 0 0 0-.44-.43c-.718-.518-1.816-.567-2.338.252-.026.04-.05.082-.072.125a1.997 1.997 0 0 0-.652 1.15.251.251 0 0 0-.176.242c-.015.52.252.927.636 1.2.4.359.993.504 1.573.52.858.023 1.45-.447 1.716-1.07l.01-.013c.457-.6.51-1.433-.145-1.901M28.02 17.956a1.263 1.263 0 0 1 .153.26 1.148 1.148 0 0 0-.433-.243c-.033-.072-.095-.133-.169-.147l-.022-.004a1.087 1.087 0 0 0-.065-.081c.192.052.377.124.536.215m-1.368 1.867c.117-.007.233-.03.344-.071.022.025.044.051.068.075a1.051 1.051 0 0 1-.436.027l.024-.03m.448-1.395a.62.62 0 0 0 .144.047.838.838 0 0 1 .006.107c-.08-.107-.228-.114-.337-.052l-.02-.08.164-.05c.013.01.027.02.043.028m-.717.143a1.102 1.102 0 0 0 .063.247c-.05-.055-.073-.137-.063-.247m1.412.65a35.186 35.186 0 0 0-.068-.133.803.803 0 0 0 .056-.122c.029.088.031.173.012.255m.718-1.553a3.586 3.586 0 0 0-.111-.074 2.06 2.06 0 0 0-.441-.431c-.717-.517-1.816-.567-2.338.252-.025.04-.05.082-.072.126a1.994 1.994 0 0 0-.652 1.15.251.251 0 0 0-.176.242c-.015.52.252.927.636 1.199.4.36.994.505 1.573.52.858.023 1.45-.447 1.716-1.07l.01-.013c.457-.6.51-1.433-.145-1.901M28.02 10.386a1.263 1.263 0 0 1 .153.26 1.142 1.142 0 0 0-.433-.243c-.033-.073-.095-.133-.169-.147l-.022-.005a1.08 1.08 0 0 0-.065-.08c.192.051.377.123.536.215m-1.368 1.867c.117-.007.233-.03.344-.072.022.026.044.051.068.075a1.02 1.02 0 0 1-.436.028l.024-.031m.448-1.394a.643.643 0 0 0 .144.046.833.833 0 0 1 .006.108c-.08-.107-.228-.115-.337-.052l-.02-.08.164-.05c.013.01.027.02.043.028m-.717.142a1.66 1.66 0 0 0 .063.247c-.05-.054-.073-.136-.063-.247m1.412.65l-.068-.132c.022-.04.04-.08.056-.122.029.088.031.173.012.254m.718-1.552a2.91 2.91 0 0 0-.111-.075 2.048 2.048 0 0 0-.441-.43c-.717-.518-1.816-.567-2.338.252-.025.04-.05.082-.072.125a1.994 1.994 0 0 0-.652 1.15.251.251 0 0 0-.176.242c-.015.52.252.927.636 1.2.4.359.994.504 1.573.52.858.023 1.45-.447 1.716-1.07l.01-.013c.457-.6.51-1.433-.145-1.901"/>
        <path fill="#FFF" d="M10.656 24.81c-1.116 0-2.02.92-2.02 2.056v8.221c0 1.135.904 2.055 2.02 2.055s2.02-.92 2.02-2.055v-8.221c0-1.135-.904-2.055-2.02-2.055M26.818 24.81c-1.116 0-2.02.92-2.02 2.056v8.221c0 1.135.904 2.055 2.02 2.055 1.115 0 2.02-.92 2.02-2.055v-8.221c0-1.135-.905-2.055-2.02-2.055M18.737 16.59c-1.116 0-2.02.92-2.02 2.054v16.443c0 1.135.904 2.055 2.02 2.055s2.02-.92 2.02-2.055V18.644c0-1.135-.904-2.055-2.02-2.055M34.899 16.59c-1.116 0-2.02.92-2.02 2.054v16.443c0 1.135.904 2.055 2.02 2.055 1.115 0 2.02-.92 2.02-2.055V18.644c0-1.135-.905-2.055-2.02-2.055"/>
        <path fill="#80CFBE" d="M36.174 12.043c-.12.187-.263.316-.416.394.1-.156.198-.342.283-.546a2.23 2.23 0 0 0 .056-.126c.064-.058.1-.144.075-.227.002-.003.002-.007.003-.01.126-.094.215-.268.248-.455l.021-.033c.01.351-.078.703-.27 1.003m-2.656-.673a2.518 2.518 0 0 1-.009-.257c.079.295.198.584.32.837.07.188.16.386.274.53a1.13 1.13 0 0 1-.165-.127c-.269-.25-.386-.627-.42-.983m1.384-.405a3.724 3.724 0 0 1 .01-.564c.024.01.048.021.073.036l.039.027c.034.178.023.421-.122.5m1.823-.785a.407.407 0 0 0-.16-.31 2.293 2.293 0 0 0-.682-.717c-.383-.255-.815-.38-1.085-.047a3.714 3.714 0 0 0-.304-.015c-.062-.001-.119.004-.173.012-.322-.127-.666-.13-.815.282a1.743 1.743 0 0 0-.093.507.704.704 0 0 0-.158.164c-.313.449-.268 1.24-.144 1.74.21.852 1.117 1.522 1.903 1.27a.462.462 0 0 0 .184-.074c.42.079.878-.062 1.243-.507.545-.663.601-1.56.284-2.305M20.018 12.043c-.12.187-.264.316-.417.394.101-.156.198-.342.284-.546.02-.041.038-.083.055-.126.064-.058.1-.144.076-.227a.35.35 0 0 1 .003-.01c.126-.094.214-.268.248-.455l.02-.033c.01.351-.077.703-.27 1.003m-2.655-.673a2.518 2.518 0 0 1-.01-.257c.08.295.198.584.32.837.07.188.16.386.275.53a1.13 1.13 0 0 1-.165-.127c-.269-.25-.387-.627-.42-.983m1.384-.405a3.665 3.665 0 0 1 .01-.564c.023.01.047.021.072.036.014.008.026.017.04.027.033.178.022.421-.122.5m1.822-.785a.407.407 0 0 0-.159-.31 2.293 2.293 0 0 0-.683-.717c-.382-.255-.815-.38-1.084-.047a3.714 3.714 0 0 0-.304-.015c-.062-.001-.12.004-.173.012-.323-.127-.667-.13-.816.282a1.758 1.758 0 0 0-.093.507.704.704 0 0 0-.158.164c-.312.449-.268 1.24-.144 1.74.21.852 1.118 1.522 1.904 1.27a.462.462 0 0 0 .184-.074c.42.079.877-.062 1.243-.507.544-.663.6-1.56.283-2.305"/>
        <g fill="#3F4F75">
            <path d="M74.759 32.856a1.862 1.862 0 0 1-1.852-1.873V12.26c0-1.035.829-1.873 1.852-1.873 1.022 0 1.851.838 1.851 1.873v18.723a1.862 1.862 0 0 1-1.851 1.873M113.644 32.856a1.862 1.862 0 0 1-1.851-1.873V12.26c0-1.035.829-1.873 1.851-1.873 1.023 0 1.852.838 1.852 1.873v18.723a1.862 1.862 0 0 1-1.852 1.873M65.5 25.026c0 2.256-1.658 4.085-3.704 4.085-2.045 0-3.703-1.83-3.703-4.085v-3.064c0-2.256 1.658-4.085 3.703-4.085 2.046 0 3.704 1.829 3.704 4.085v3.064zm-3.704-10.894a6.953 6.953 0 0 0-3.842 1.163 1.852 1.852 0 0 0-1.713-1.163 1.862 1.862 0 0 0-1.851 1.872v18.724c0 1.034.829 1.873 1.851 1.873a1.862 1.862 0 0 0 1.852-1.873V31.78a6.937 6.937 0 0 0 3.703 1.076c4.091 0 7.407-3.593 7.407-8.025v-2.675c0-4.431-3.316-8.024-7.407-8.024zM91.424 25.026c0 2.256-1.658 4.085-3.704 4.085-2.045 0-3.703-1.83-3.703-4.085v-3.064c0-2.256 1.658-4.085 3.703-4.085 2.046 0 3.704 1.829 3.704 4.085v3.064zM87.72 14.132c-4.09 0-7.406 3.593-7.406 8.024v2.675c0 4.432 3.316 8.025 7.406 8.025 4.091 0 7.407-3.593 7.407-8.025v-2.675c0-4.431-3.316-8.024-7.407-8.024zM106.238 29.111c-2.042 0-3.704-1.68-3.704-3.745v-7.49h3.704a1.862 1.862 0 0 0 1.851-1.872 1.862 1.862 0 0 0-1.851-1.872h-3.704v-1.873a1.862 1.862 0 0 0-1.851-1.872 1.862 1.862 0 0 0-1.852 1.872v13.107c0 4.13 3.323 7.49 7.407 7.49a1.862 1.862 0 0 0 1.851-1.873 1.862 1.862 0 0 0-1.851-1.872M132.247 14.284a1.844 1.844 0 0 0-2.432.983l-3.84 9.056-3.839-9.056a1.844 1.844 0 0 0-2.432-.983 1.88 1.88 0 0 0-.972 2.458l5.229 12.333-.622 1.467a3.71 3.71 0 0 1-3.335 2.308 1.864 1.864 0 0 0-1.809 1.917 1.862 1.862 0 0 0 1.85 1.828h.045a7.41 7.41 0 0 0 6.661-4.597l6.468-15.256a1.88 1.88 0 0 0-.972-2.458"/>
        </g>
    </g>
</svg>
